<?xml version="1.0" encoding="UTF-8" standalone="no"?>
<!-- Created with Inkscape (http://www.inkscape.org/) -->

<svg
   xmlns:dc="http://purl.org/dc/elements/1.1/"
   xmlns:cc="http://creativecommons.org/ns#"
   xmlns:rdf="http://www.w3.org/1999/02/22-rdf-syntax-ns#"
   xmlns:svg="http://www.w3.org/2000/svg"
   xmlns="http://www.w3.org/2000/svg"
   xmlns:xlink="http://www.w3.org/1999/xlink"
   xmlns:sodipodi="http://sodipodi.sourceforge.net/DTD/sodipodi-0.dtd"
   xmlns:inkscape="http://www.inkscape.org/namespaces/inkscape"
   id="svg2"
   version="1.1"
   inkscape:version="0.48.5 r"
   width="2816"
   height="2112"
   sodipodi:docname="dorit-pd.svg"
   inkscape:export-filename="/home/stefan/bilder/dorit.png"
   inkscape:export-xdpi="92"
   inkscape:export-ydpi="92">
  <metadata
     id="metadata8">
    <rdf:RDF>
      <cc:Work
         rdf:about="">
        <dc:format>image/svg+xml</dc:format>
        <dc:type
           rdf:resource="http://purl.org/dc/dcmitype/StillImage" />
        <dc:title></dc:title>
      </cc:Work>
    </rdf:RDF>
  </metadata>
  <defs
     id="defs6">
    <linearGradient
       inkscape:collect="always"
       id="linearGradient4885">
      <stop
         style="stop-color:#a13e1f;stop-opacity:1;"
         offset="0"
         id="stop4887" />
      <stop
         style="stop-color:#a13e1f;stop-opacity:0;"
         offset="1"
         id="stop4889" />
    </linearGradient>
    <linearGradient
       id="linearGradient4523">
      <stop
         style="stop-color:#993a1c;stop-opacity:0.98795182;"
         offset="0"
         id="stop4525" />
      <stop
         id="stop4531"
         offset="0.5"
         style="stop-color:#993a1c;stop-opacity:0.54618472;" />
      <stop
         style="stop-color:#993a1c;stop-opacity:0.97188753;"
         offset="1"
         id="stop4527" />
    </linearGradient>
    <filter
       inkscape:collect="always"
       id="filter4143"
       x="-0.32533564"
       width="1.6506713"
       y="-0.34187812"
       height="1.6837562">
      <feGaussianBlur
         inkscape:collect="always"
         stdDeviation="11.7943"
         id="feGaussianBlur4145" />
    </filter>
    <filter
       color-interpolation-filters="sRGB"
       inkscape:collect="always"
       id="filter4143-9"
       x="-0.32533565"
       width="1.6506712"
       y="-0.34187812"
       height="1.6837562">
      <feGaussianBlur
         inkscape:collect="always"
         stdDeviation="11.7943"
         id="feGaussianBlur4145-5" />
    </filter>
    <filter
       inkscape:collect="always"
       id="filter4172"
       x="-0.24394104"
       width="1.4878821"
       y="-0.27776394"
       height="1.5555279">
      <feGaussianBlur
         inkscape:collect="always"
         stdDeviation="15.77451"
         id="feGaussianBlur4174" />
    </filter>
    <filter
       inkscape:collect="always"
       id="filter4204"
       x="-0.52811269"
       width="2.0562254"
       y="-0.47656389"
       height="1.9531278">
      <feGaussianBlur
         inkscape:collect="always"
         stdDeviation="16.622647"
         id="feGaussianBlur4206" />
    </filter>
    <filter
       inkscape:collect="always"
       id="filter4349"
       x="-0.19298342"
       width="1.3859668"
       y="-0.26844867"
       height="1.5368973">
      <feGaussianBlur
         inkscape:collect="always"
         stdDeviation="19.200885"
         id="feGaussianBlur4351" />
    </filter>
    <filter
       inkscape:collect="always"
       id="filter4361">
      <feGaussianBlur
         inkscape:collect="always"
         stdDeviation="5.3000903"
         id="feGaussianBlur4363" />
    </filter>
    <filter
       inkscape:collect="always"
       id="filter4373">
      <feGaussianBlur
         inkscape:collect="always"
         stdDeviation="2.1489712"
         id="feGaussianBlur4375" />
    </filter>
    <filter
       inkscape:collect="always"
       id="filter4413">
      <feGaussianBlur
         inkscape:collect="always"
         stdDeviation="6.9140116"
         id="feGaussianBlur4415" />
    </filter>
    <filter
       inkscape:collect="always"
       id="filter4429">
      <feGaussianBlur
         inkscape:collect="always"
         stdDeviation="5.2698942"
         id="feGaussianBlur4431" />
    </filter>
    <filter
       color-interpolation-filters="sRGB"
       inkscape:collect="always"
       id="filter4143-8"
       x="-0.32533565"
       width="1.6506712"
       y="-0.34187812"
       height="1.6837562">
      <feGaussianBlur
         inkscape:collect="always"
         stdDeviation="11.7943"
         id="feGaussianBlur4145-52" />
    </filter>
    <filter
       inkscape:collect="always"
       id="filter4495"
       x="-0.16822269"
       width="1.3364454"
       y="-0.088403057"
       height="1.1768061">
      <feGaussianBlur
         inkscape:collect="always"
         stdDeviation="3.4296336"
         id="feGaussianBlur4497" />
    </filter>
    <linearGradient
       inkscape:collect="always"
       xlink:href="#linearGradient4523"
       id="linearGradient4529"
       x1="1197.9458"
       y1="1534.4747"
       x2="2116.0544"
       y2="1946.7891"
       gradientUnits="userSpaceOnUse" />
    <filter
       inkscape:collect="always"
       id="filter4557"
       x="-0.16379713"
       width="1.3275943"
       y="-0.16222204"
       height="1.3244441">
      <feGaussianBlur
         inkscape:collect="always"
         stdDeviation="69.862635"
         id="feGaussianBlur4559" />
    </filter>
    <filter
       inkscape:collect="always"
       id="filter4634"
       x="-0.15240065"
       width="1.3048013"
       y="-0.17657132"
       height="1.3531426">
      <feGaussianBlur
         inkscape:collect="always"
         stdDeviation="5.2436359"
         id="feGaussianBlur4636" />
    </filter>
    <filter
       color-interpolation-filters="sRGB"
       inkscape:collect="always"
       id="filter4143-3"
       x="-0.32533565"
       width="1.6506712"
       y="-0.34187812"
       height="1.6837562">
      <feGaussianBlur
         inkscape:collect="always"
         stdDeviation="11.7943"
         id="feGaussianBlur4145-6" />
    </filter>
    <filter
       inkscape:collect="always"
       id="filter4723"
       x="-0.11954861"
       width="1.2390972"
       y="-0.15424196"
       height="1.3084839">
      <feGaussianBlur
         inkscape:collect="always"
         stdDeviation="15.124999"
         id="feGaussianBlur4725" />
    </filter>
    <filter
       color-interpolation-filters="sRGB"
       inkscape:collect="always"
       id="filter4723-2"
       x="-0.11954861"
       width="1.2390972"
       y="-0.15424196"
       height="1.308484">
      <feGaussianBlur
         inkscape:collect="always"
         stdDeviation="15.124999"
         id="feGaussianBlur4725-9" />
    </filter>
    <filter
       color-interpolation-filters="sRGB"
       inkscape:collect="always"
       id="filter4723-5"
       x="-0.11954861"
       width="1.2390972"
       y="-0.15424196"
       height="1.308484">
      <feGaussianBlur
         inkscape:collect="always"
         stdDeviation="15.124999"
         id="feGaussianBlur4725-1" />
    </filter>
    <linearGradient
       inkscape:collect="always"
       xlink:href="#linearGradient4523"
       id="linearGradient4803"
       gradientUnits="userSpaceOnUse"
       x1="1197.9458"
       y1="1534.4747"
       x2="2116.0544"
       y2="1946.7891" />
    <linearGradient
       inkscape:collect="always"
       xlink:href="#linearGradient4523"
       id="linearGradient4827"
       gradientUnits="userSpaceOnUse"
       x1="1197.9458"
       y1="1534.4747"
       x2="2116.0544"
       y2="1946.7891"
       gradientTransform="matrix(1.0667045,-0.38085524,0.41826825,0.97129058,-872.34282,404.55837)" />
    <linearGradient
       inkscape:collect="always"
       xlink:href="#linearGradient4523"
       id="linearGradient4858"
       gradientUnits="userSpaceOnUse"
       gradientTransform="matrix(1.0667045,-0.38085524,0.41826825,0.97129058,-872.34282,404.55837)"
       x1="1197.9458"
       y1="1534.4747"
       x2="2116.0544"
       y2="1946.7891" />
    <linearGradient
       inkscape:collect="always"
       xlink:href="#linearGradient4523"
       id="linearGradient4882"
       gradientUnits="userSpaceOnUse"
       gradientTransform="matrix(1.0667045,-0.38085524,0.41826825,0.97129058,-872.34282,404.55837)"
       x1="1197.9458"
       y1="1534.4747"
       x2="2116.0544"
       y2="1946.7891" />
    <linearGradient
       inkscape:collect="always"
       xlink:href="#linearGradient4885"
       id="linearGradient4891"
       x1="787.0202"
       y1="1886.0239"
       x2="662.34375"
       y2="2131.4807"
       gradientUnits="userSpaceOnUse" />
    <filter
       inkscape:collect="always"
       id="filter3893"
       x="-0.27687459"
       width="1.5537492"
       y="-0.11114851"
       height="1.222297">
      <feGaussianBlur
         inkscape:collect="always"
         stdDeviation="5.4534938"
         id="feGaussianBlur3895" />
    </filter>
    <filter
       inkscape:collect="always"
       id="filter3953"
       x="-0.1120943"
       width="1.2241886"
       y="-0.19066364"
       height="1.3813273">
      <feGaussianBlur
         inkscape:collect="always"
         stdDeviation="16.885802"
         id="feGaussianBlur3955" />
    </filter>
    <filter
       color-interpolation-filters="sRGB"
       inkscape:collect="always"
       id="filter3953-6"
       x="-0.1120943"
       width="1.2241886"
       y="-0.19066364"
       height="1.3813273">
      <feGaussianBlur
         inkscape:collect="always"
         stdDeviation="16.885802"
         id="feGaussianBlur3955-0" />
    </filter>
    <filter
       color-interpolation-filters="sRGB"
       inkscape:collect="always"
       id="filter3953-6-6"
       x="-0.1120943"
       width="1.2241886"
       y="-0.19066364"
       height="1.3813273">
      <feGaussianBlur
         inkscape:collect="always"
         stdDeviation="16.885802"
         id="feGaussianBlur3955-0-9" />
    </filter>
    <filter
       inkscape:collect="always"
       id="filter4015">
      <feGaussianBlur
         inkscape:collect="always"
         stdDeviation="8.8300017"
         id="feGaussianBlur4017" />
    </filter>
  </defs>
  <sodipodi:namedview
     pagecolor="#ffffff"
     bordercolor="#666666"
     borderopacity="1"
     objecttolerance="10"
     gridtolerance="10"
     guidetolerance="10"
     inkscape:pageopacity="0"
     inkscape:pageshadow="2"
     inkscape:window-width="1280"
     inkscape:window-height="946"
     id="namedview4"
     showgrid="false"
     inkscape:zoom="0.3375947"
     inkscape:cx="1408"
     inkscape:cy="1056"
     inkscape:window-x="0"
     inkscape:window-y="24"
     inkscape:window-maximized="1"
     inkscape:current-layer="svg2"
     borderlayer="true" />
  <path
     style="color:#000000;fill:url(#linearGradient4891);fill-opacity:1;fill-rule:nonzero;stroke:none;stroke-width:5;marker:none;visibility:visible;display:inline;overflow:visible;enable-background:accumulate"
     d="m 1593.0196,2281.2931 c 0,367.8609 -574.9098,-72.1578 -958.86452,-72.1578 -383.95474,0 -614.72796,298.4786 -614.72796,-69.3823 0,-367.8608 280.72854,-802.0604 664.68328,-802.0604 383.9547,0 908.9092,575.7397 908.9092,943.6005 z"
     id="path2987"
     inkscape:connector-curvature="0"
     sodipodi:nodetypes="sssss" />
  <path
     inkscape:connector-curvature="0"
     style="opacity:0.94736843;color:#000000;fill:#552624;fill-opacity:1;fill-rule:nonzero;stroke:none;stroke-width:5;marker:none;visibility:visible;display:inline;overflow:visible;filter:url(#filter4557);enable-background:accumulate"
     d="m 1590,1050.4062 c -116.6793,0.6896 -227.5317,81.5286 -262.5938,198.5313 -35.2343,-13.452 -71.233,-22.1401 -106.7187,-24.9687 -168.2938,-13.4155 -261.13611,109.3961 -207.375,274.3124 49.025,150.3884 203.0318,283.8229 357.4063,316.3438 17.157,88.8951 84.3233,161.029 180.1562,180.1875 6.3101,1.2615 12.6446,2.2667 18.9688,3.0313 88.9266,62.8769 198.2047,96.8431 292.125,83.125 149.7974,-21.8796 203.8327,-156.7742 120.7187,-301.3126 -29.4671,-51.2443 -72.2226,-96.8032 -121.8125,-133.3124 -25.0683,-68.3916 -81.6608,-122.1917 -158.0625,-141.5313 52.838,-35.8678 94.207,-89.712 112.5313,-154.3125 38.5965,-136.0686 -39.6059,-268.2513 -174.6563,-295.25 -16.8814,-3.3749 -33.8382,-4.9434 -50.6875,-4.8438 z"
     id="path3972-8-9" />
  <path
     sodipodi:nodetypes="ssssssscss"
     inkscape:connector-curvature="0"
     id="path4675"
     d="m 2205.7347,761.12313 c 61.065,141.80338 116.2645,214.55807 52.4632,315.41597 -233.0356,368.3866 157.2935,401.5121 79.5459,465.3897 -57.2198,47.0118 -91.1221,23.0992 -78.2389,61.9744 27.4193,82.7382 30.1767,112.1526 -8.3423,146.2818 -39.0553,34.6043 -16.5552,56.7692 -38.3522,109.6847 -26.5716,64.5072 -106.8878,187.3997 -145.5044,236.4628 C 1965.8658,2225.214 894.28066,1834.1257 703.78517,1345.942 429.54607,866.38943 587.31631,315.18984 1050.8374,149.69468 c 463.5211,-165.495165 910.6374,44.21504 1154.8973,611.42845 z"
     style="color:#000000;fill:#ba4d28;fill-opacity:1;fill-rule:nonzero;stroke:none;stroke-width:5;marker:none;visibility:visible;display:inline;overflow:visible;enable-background:accumulate" />
  <path
     sodipodi:type="arc"
     style="opacity:0.87575755;color:#000000;fill:#502424;fill-opacity:1;fill-rule:nonzero;stroke:none;stroke-width:5;marker:none;visibility:visible;display:inline;overflow:visible;filter:url(#filter4723);enable-background:accumulate"
     id="path3972-8"
     sodipodi:cx="1960.7463"
     sodipodi:cy="1534.7385"
     sodipodi:rx="167.90538"
     sodipodi:ry="94.360054"
     d="m 2128.6517,1534.7385 a 167.90538,94.360054 0 1 1 -335.8107,0 167.90538,94.360054 0 1 1 335.8107,0 z"
     transform="matrix(1.1403794,1.0627147,-1.409271,1.0671361,1729.9504,-2783.3169)" />
  <path
     style="color:#000000;fill:url(#linearGradient4882);fill-opacity:1;fill-rule:nonzero;stroke:none;stroke-width:5;marker:none;visibility:visible;display:inline;overflow:visible;enable-background:accumulate"
     d="m 2205.7347,761.12313 c 61.065,141.80338 110.7716,211.28601 52.4632,315.41597 -98.4784,175.8674 -96.8272,57.675 -73.5233,131.9578 83.8874,267.3968 150.8252,165.5319 162.7623,308.3629 4.4862,53.679 -31.5625,64.7771 -70.3162,77.0389 -14.0809,4.4553 -19.9249,5.7194 -17.6158,10.0045 41.3478,76.7319 30.1767,112.1526 -8.3423,146.2818 -39.0553,34.6043 -16.5552,56.7692 -38.3522,109.6847 -26.5716,64.5072 -106.8878,187.3997 -145.5044,236.4628 C 1965.8658,2225.214 894.28066,1834.1257 703.78517,1345.942 429.54607,866.38943 587.31631,315.18984 1050.8374,149.69468 c 463.5211,-165.495165 910.6374,44.21504 1154.8973,611.42845 z"
     id="path3758"
     inkscape:connector-curvature="0"
     sodipodi:nodetypes="ssssssssscss" />
  <path
     sodipodi:type="arc"
     style="opacity:0.87575755;color:#000000;fill:#502424;fill-opacity:1;fill-rule:nonzero;stroke:none;stroke-width:5;marker:none;visibility:visible;display:inline;overflow:visible;filter:url(#filter4723-2);enable-background:accumulate"
     id="path3972-8-4"
     sodipodi:cx="1960.7463"
     sodipodi:cy="1534.7385"
     sodipodi:rx="167.90538"
     sodipodi:ry="94.360054"
     d="m 2128.6517,1534.7385 a 167.90538,94.360054 0 1 1 -335.8107,0 167.90538,94.360054 0 1 1 335.8107,0 z"
     transform="matrix(0.64844598,2.3182045,-5.0942889,0.77445676,7918.9467,-4374.1107)" />
  <path
     style="opacity:0.99691354;color:#000000;fill:#1a1a1a;fill-opacity:1;fill-rule:nonzero;stroke:none;stroke-width:5;marker:none;visibility:visible;display:inline;overflow:visible;enable-background:accumulate"
     d="m 1309.9315,-5.558024 c -364.64914,0 -661.96694,178.370934 -676.5937,401.812504 -131.88059,76.46437 -214.28125,185.24393 -214.28125,305.90625 0,4.53118 0.14433,9.03474 0.375,13.53125 -21.82345,41.1499 -33.65625,85.08132 -33.65625,130.75 0,79.63839 38.66851,176.29942 100.99405,239.70242 -43.83568,63.749 57.75946,-19.9411 5.12019,170.967 -17.06393,61.8861 -73.88584,247.369 -35.72204,202.5784 84.5762,-99.2622 142.75979,-115.2557 220.73395,-112.0138 117.83533,4.8992 209.45631,194.6522 271.79689,223.2098 312.61746,143.207 -50.97947,-126.5833 60.70046,-236.3826 207.9395,-204.4379 299.5667,171.99 343.3231,131.9587 43.7563,-40.0313 31.1204,-66.0766 31.1204,-66.0766 0,0 -158.3523,-251.9009 250.8156,-370.7738 73.4733,-21.3457 10.9869,-222.71419 -30.8721,-204.99541 15.9133,-30.00156 170.8072,-44.84879 203.1308,-69.08484 118.7332,-17.97952 136.3516,-76.21187 160.5149,-143.77677 89.0219,44.08411 163.0906,53.84739 196.0626,18.3125 C 2221.355,567.70812 2130.7489,389.5221 1961.0878,232.09823 1832.8998,113.1561 1696.274,40.129844 1612.1815,38.410726 c -90.9808,-28.129789 -193.6303,-43.96875 -302.25,-43.96875 z"
     id="path3780"
     inkscape:connector-curvature="0"
     sodipodi:nodetypes="scscscsssssscscccsscs" />
  <path
     style="color:#000000;fill:#000000;fill-opacity:0.99016395;fill-rule:nonzero;stroke:none;stroke-width:5;marker:none;visibility:visible;display:inline;overflow:visible;filter:url(#filter4361);enable-background:accumulate"
     inkscape:transform-center-x="-5.8894813"
     inkscape:transform-center-y="-26.04188"
     d="m 1718.1078,1411.4124 177.5978,-208.1195 272.7756,-43.2753 4.9105,28.1359 -48.0752,30.5551 -215.8695,5.055 z"
     id="path3966"
     inkscape:connector-curvature="0"
     sodipodi:nodetypes="ccccccc" />
  <path
     style="opacity:0.53086416;color:#000000;fill:#000000;fill-opacity:0.99016395;fill-rule:nonzero;stroke:none;stroke-width:5;marker:none;visibility:visible;display:inline;overflow:visible;filter:url(#filter4413);enable-background:accumulate"
     inkscape:transform-center-x="-3.7646414"
     inkscape:transform-center-y="1.3587794"
     d="m 2094.2041,1301.5403 -28.9699,122.7001 -78.0305,146.2492 -3.939,-141.8854 -181.539,0.3908 240.9263,-167.2454 z"
     id="path3968"
     inkscape:connector-curvature="0"
     sodipodi:nodetypes="ccccccc" />
  <path
     transform="matrix(0.7982243,-0.35296301,0.30112487,0.93563728,-92.882282,702.04141)"
     style="opacity:0.31172838;color:#000000;fill:#000000;fill-opacity:0.99016395;fill-rule:nonzero;stroke:none;stroke-width:5;marker:none;visibility:visible;display:inline;overflow:visible;filter:url(#filter4429);enable-background:accumulate"
     d="m 2081.6495,1553.3433 c 0,52.1136 -28.1716,75.7553 -120.9032,75.7553 -92.7315,0 -167.9053,-42.2465 -167.9053,-94.3601 0,-52.1136 75.1738,-94.36 167.9053,-94.36 92.7316,0 120.9032,60.8512 120.9032,112.9648 z"
     id="path3972"
     inkscape:connector-curvature="0"
     sodipodi:nodetypes="sssss" />
  <path
     style="color:#000000;fill:#000000;fill-opacity:0.99016395;fill-rule:nonzero;stroke:none;stroke-width:5;marker:none;visibility:visible;display:inline;overflow:visible;filter:url(#filter4172);enable-background:accumulate"
     d="m 2164.0893,1479.4923 c -43.3537,0.1975 -74.704,27.0974 -87.1179,60.8296 -11.4656,31.1562 -14.5405,60.8985 18.4433,75.4677 -8.4324,-8.0365 33.4357,3.4232 30.7413,-6.9915 -2.6943,-10.4147 -35.9178,-43.4054 -31.7468,-54.7397 14.1873,-38.5511 51.196,-51.6676 100.8373,-44.0183 9.5377,1.4698 21.1186,-16.3082 28.957,-12.8417 -11.818,-11.2795 -21.0103,-13.1767 -41.483,-16.3314 -6.2052,-0.9562 -12.4376,-1.4029 -18.6312,-1.3747 z"
     id="path3972-8-9-8-6"
     inkscape:connector-curvature="0"
     sodipodi:nodetypes="sscscccss" />
  <path
     transform="matrix(0.61102963,0.39171135,-0.36589234,0.57075461,1416.5738,-194.12585)"
     style="opacity:0.91049386;color:#000000;fill:#ffffff;fill-opacity:0.99016395;fill-rule:nonzero;stroke:none;stroke-width:5;marker:none;visibility:visible;display:inline;overflow:visible;filter:url(#filter4143);enable-background:accumulate"
     d="m 2217.2628,1561.1926 c 0,22.8637 -37.8261,-3.294 -37.8261,-3.294 0,0 -49.1804,26.1577 -49.1804,3.294 0,-22.8636 19.477,-41.3982 43.5032,-41.3982 24.0262,0 43.5033,18.5346 43.5033,41.3982 z"
     id="path4129"
     inkscape:connector-curvature="0"
     sodipodi:nodetypes="scsss" />
  <path
     transform="matrix(1.2761677,1.9011381,-0.76418549,2.7701095,521.03625,-7528.4549)"
     style="opacity:0.91049386;color:#000000;fill:#ffffff;fill-opacity:0.70163933;fill-rule:nonzero;stroke:none;stroke-width:5;marker:none;visibility:visible;display:inline;overflow:visible;filter:url(#filter4143-9);enable-background:accumulate"
     d="m 2238.8411,1575.4376 c 0,22.8637 -83.0555,-24.3502 -83.0555,-24.3502 0,0 -79.847,22.1575 -79.847,-0.7062 0,-22.8636 73.7947,-30.5868 97.8209,-30.5868 24.0262,0 65.0816,32.7796 65.0816,55.6432 z"
     id="path4129-8"
     inkscape:connector-curvature="0"
     sodipodi:nodetypes="scsss" />
  <path
     transform="matrix(-0.87100834,3.2212269,2.3469701,0.51537184,237.1202,-6098.527)"
     style="opacity:0.85802469;color:#000000;fill:#ffffff;fill-opacity:0.747541;fill-rule:nonzero;stroke:none;stroke-width:5;marker:none;visibility:visible;display:inline;overflow:visible;filter:url(#filter4204);enable-background:accumulate"
     d="m 2217.2628,1561.1926 c 0,22.8637 -37.8261,-3.294 -37.8261,-3.294 0,0 -49.1804,26.1577 -49.1804,3.294 0,-22.8636 19.477,-41.3982 43.5032,-41.3982 24.0262,0 43.5033,18.5346 43.5033,41.3982 z"
     id="path4129-7"
     inkscape:connector-curvature="0"
     sodipodi:nodetypes="scsss" />
  <path
     style="opacity:0.44753089;color:#000000;fill:#381a20;fill-opacity:1;fill-rule:nonzero;stroke:none;stroke-width:5;marker:none;visibility:visible;display:inline;overflow:visible;enable-background:accumulate"
     d="m 2221.0524,1840.0259 c -12.4332,38.441 -44.4884,82.3031 -96.7165,84.6771 -52.228,2.374 -101.8873,1.5127 -101.8873,-37.6583 0,-39.171 63.4616,-16.2318 110.3284,-39.403 81.6012,-40.3441 116.9585,-96.2991 88.2754,-7.6158 z"
     id="path4208"
     inkscape:connector-curvature="0"
     sodipodi:nodetypes="sssss" />
  <path
     style="color:#000000;fill:#6f2623;fill-opacity:1;fill-rule:nonzero;stroke:none;stroke-width:5;marker:none;visibility:visible;display:inline;overflow:visible;enable-background:accumulate"
     d="m 2233.5938,1600.3438 c -0.9898,0.016 -4.9425,-0.9142 -5.9749,-0.825 -33.0382,2.8527 -42.5692,13.222 -45.708,59.8422 -4.571,67.8917 -10.6714,69.7632 -17.5337,74.525 -15.4737,10.7372 -43.0817,35.9864 -64.442,45.5851 -59.0263,26.5248 -99.1311,44.7899 -88.7164,69.6227 10.4146,24.8327 66.6925,23.4622 125.7187,-3.0626 48.4622,-21.7775 82.9868,-41.553 88.2836,-66.0396 34.1725,-23.431 61.3482,-46.0328 59.7594,-97.7187 -1.401,-45.5772 -20.7036,-82.4177 -51.3867,-81.9291 z"
     id="path4208-4"
     inkscape:connector-curvature="0"
     sodipodi:nodetypes="ccssssscsc" />
  <path
     style="opacity:0.91049386;color:#000000;fill:#000000;fill-opacity:1;fill-rule:nonzero;stroke:none;stroke-width:5;marker:none;visibility:visible;display:inline;overflow:visible;filter:url(#filter4373);enable-background:accumulate"
     inkscape:transform-center-x="-3.2031068"
     inkscape:transform-center-y="-22.077342"
     d="m 2032.0968,1452.6234 3.2031,-72.9492 -66.4632,37.928 55.901,-76.3467 36.2767,-63.5908 19.3931,5.0573 z"
     id="path4318"
     inkscape:connector-curvature="0"
     sodipodi:nodetypes="ccccccc" />
  <path
     transform="matrix(-0.54237072,0.48231628,-0.45052519,-0.50662124,3823.2671,1005.6321)"
     style="opacity:0.61111109;color:#000000;fill:#ffffff;fill-opacity:0.99016395;fill-rule:nonzero;stroke:none;stroke-width:5;marker:none;visibility:visible;display:inline;overflow:visible;filter:url(#filter4349);enable-background:accumulate"
     d="m 2373.3149,1569.3415 c 0,22.8637 -193.8275,15.7203 -193.8275,15.7203 0,0 -92.7289,-42.1176 -84.4195,-63.1798 5.724,-14.509 52.423,-16.8115 76.4492,-16.8115 24.0262,0 201.7978,41.4074 201.7978,64.271 z"
     id="path4129-9"
     inkscape:connector-curvature="0"
     sodipodi:nodetypes="scsss" />
  <path
     transform="matrix(0.41575617,0.85709921,-0.81131472,0.38322581,2649.6935,-968.67926)"
     style="opacity:0.5462963;color:#000000;fill:#ffffff;fill-opacity:0.99016395;fill-rule:nonzero;stroke:none;stroke-width:5;marker:none;visibility:visible;display:inline;overflow:visible;filter:url(#filter4143-8);enable-background:accumulate"
     d="m 2217.2628,1561.1926 c 0,22.8637 -37.8261,-3.294 -37.8261,-3.294 0,0 -168.1415,35.188 -170.2431,24.2086 -3.0751,-16.0656 140.5397,-62.3128 164.5659,-62.3128 24.0262,0 43.5033,18.5346 43.5033,41.3982 z"
     id="path4129-90"
     inkscape:connector-curvature="0"
     sodipodi:nodetypes="scsss" />
  <path
     transform="matrix(0.03077255,-0.7251538,0.67735648,0.02874423,839.95288,2914.2773)"
     style="opacity:0.91049386;color:#000000;fill:#ffffff;fill-opacity:0.99016395;fill-rule:nonzero;stroke:none;stroke-width:5;marker:none;visibility:visible;display:inline;overflow:visible;filter:url(#filter4495);enable-background:accumulate"
     d="m 2217.2628,1561.1926 c 0,22.8637 -37.8261,-3.294 -37.8261,-3.294 0,0 -49.1804,26.1577 -49.1804,3.294 0,-22.8636 19.477,-41.3982 43.5032,-41.3982 24.0262,0 43.5033,18.5346 43.5033,41.3982 z"
     id="path4129-73"
     inkscape:connector-curvature="0"
     sodipodi:nodetypes="scsss" />
  <path
     style="color:#000000;fill:#942f2c;fill-opacity:1;fill-rule:nonzero;stroke:none;stroke-width:5;marker:none;visibility:visible;display:inline;overflow:visible;enable-background:accumulate"
     d="m 2225.7508,1835.559 c -7.1402,39.7658 -43.9976,86.2291 -96.2257,88.6031 -52.228,2.374 62.7836,-44.277 62.5673,-70.3999 -0.2016,-24.3468 -101.4837,12.5839 -54.617,-10.5874 81.6012,-40.3441 104.199,-96.299 88.2754,-7.6158 z"
     id="path4208-5"
     inkscape:connector-curvature="0"
     sodipodi:nodetypes="sssss" />
  <path
     transform="matrix(0.34638836,0.34876128,-0.33897626,0.28209035,2013.9926,601.15077)"
     style="opacity:0.91049386;color:#000000;fill:#ffffff;fill-opacity:0.99016395;fill-rule:nonzero;stroke:none;stroke-width:5;marker:none;visibility:visible;display:inline;overflow:visible;filter:url(#filter4634);enable-background:accumulate"
     d="m 2217.2628,1561.1926 c 0,22.8637 -37.8261,-3.294 -37.8261,-3.294 0,0 -49.1804,26.1577 -49.1804,3.294 0,-22.8636 19.477,-41.3982 43.5032,-41.3982 24.0262,0 43.5033,18.5346 43.5033,41.3982 z"
     id="path4129-6"
     inkscape:connector-curvature="0"
     sodipodi:nodetypes="scsss" />
  <path
     sodipodi:type="arc"
     style="opacity:0.31172838;color:#000000;fill:#cccccc;fill-opacity:0.99016395;fill-rule:nonzero;stroke:none;stroke-width:5;marker:none;visibility:visible;display:inline;overflow:visible;enable-background:accumulate"
     id="path3972-8-9-8-63"
     sodipodi:cx="1960.7463"
     sodipodi:cy="1534.7385"
     sodipodi:rx="167.90538"
     sodipodi:ry="94.360054"
     d="m 2128.6517,1534.7385 a 167.90538,94.360054 0 1 1 -335.8107,0 167.90538,94.360054 0 1 1 335.8107,0 z"
     transform="matrix(-0.06932864,0.24441189,-0.43165508,-0.08629479,1911.5485,1332.6773)" />
  <path
     transform="matrix(0.61102963,0.39171135,-0.36589234,0.57075461,360.09254,-58.685343)"
     style="opacity:0.91049386;color:#000000;fill:#ffffff;fill-opacity:0.99016395;fill-rule:nonzero;stroke:none;stroke-width:5;marker:none;visibility:visible;display:inline;overflow:visible;filter:url(#filter4143-3);enable-background:accumulate"
     d="m 2217.2628,1561.1926 c 0,22.8637 -37.8261,-3.294 -37.8261,-3.294 0,0 -49.1804,26.1577 -49.1804,3.294 0,-22.8636 19.477,-41.3982 43.5032,-41.3982 24.0262,0 43.5033,18.5346 43.5033,41.3982 z"
     id="path4129-1"
     inkscape:connector-curvature="0"
     sodipodi:nodetypes="scsss" />
  <path
     transform="matrix(-0.7130857,3.2212269,1.9214406,0.51537184,513.5402,-6056.2052)"
     style="opacity:0.71296297;color:#000000;fill:#ffffff;fill-opacity:0.747541;fill-rule:nonzero;stroke:none;stroke-width:5;marker:none;visibility:visible;display:inline;overflow:visible;filter:url(#filter3893);enable-background:accumulate"
     d="m 2261.3575,1560.2244 c 2.2671,7.8747 -105.9129,32.5112 -105.9129,32.5112 0,0 -80.2682,6.2864 -75.3747,-10.4136 4.2362,-14.4565 51.2654,-83.4359 68.4106,-28.205 14.6813,47.2936 111.0996,-0.066 112.877,6.1074 z"
     id="path4129-7-9"
     inkscape:connector-curvature="0"
     sodipodi:nodetypes="scsss" />
  <path
     sodipodi:type="arc"
     style="opacity:0.87575755;color:#000000;fill:#502424;fill-opacity:1;fill-rule:nonzero;stroke:none;stroke-width:5;marker:none;visibility:visible;display:inline;overflow:visible;filter:url(#filter4723-5);enable-background:accumulate"
     id="path3972-8-3"
     sodipodi:cx="1960.7463"
     sodipodi:cy="1534.7385"
     sodipodi:rx="167.90538"
     sodipodi:ry="94.360054"
     d="m 2128.6517,1534.7385 a 167.90538,94.360054 0 1 1 -335.8107,0 167.90538,94.360054 0 1 1 335.8107,0 z"
     transform="matrix(1.6430996,1.0627147,-2.0305283,1.0671361,1437.4211,-1951.1072)" />
  <g
     id="g4094"
     transform="matrix(0.65229819,0,0,0.48948079,940.69959,844.37527)" />
  <path
     sodipodi:type="arc"
     style="opacity:0.93518521;color:#000000;fill:#502424;fill-opacity:1;fill-rule:nonzero;stroke:none;stroke-width:5;marker:none;visibility:visible;display:inline;overflow:visible;filter:url(#filter3953);enable-background:accumulate"
     id="path3972-8-3-0"
     sodipodi:cx="1960.7463"
     sodipodi:cy="1534.7385"
     sodipodi:rx="167.90538"
     sodipodi:ry="94.360054"
     d="m 2128.6517,1534.7385 a 167.90538,94.360054 0 1 1 -335.8107,0 167.90538,94.360054 0 1 1 335.8107,0 z"
     transform="matrix(-1.2471542,-0.91590134,1.2986485,-1.3985183,2080.3403,5795.6968)" />
  <path
     style="color:#000000;fill:#000000;fill-opacity:0.99016395000000001;fill-rule:nonzero;stroke:none;stroke-width:5;marker:none;visibility:visible;display:inline;overflow:visible;enable-background:accumulate;opacity:0.64506173000000000;filter:url(#filter4015)"
     inkscape:transform-center-x="90.943795"
     inkscape:transform-center-y="253.3874"
     d="m 2141.0729,1616.0312 317.7502,-24.95 272.7756,-43.2753 4.9105,28.1359 -13.1977,29.1137 -250.747,6.4964 z"
     id="path3966-4"
     inkscape:connector-curvature="0"
     sodipodi:nodetypes="ccccccc"
     transform="matrix(0.39602092,-0.8211991,0.91810397,0.34637226,-430.84146,3312.1384)" />
</svg>
